<svg width="946" height="305" viewBox="0 0 946 305" fill="none" xmlns="http://www.w3.org/2000/svg">
<path d="M45.0639 1.2417C41.2639 2.0417 34.5639 4.4417 30.0639 6.5417C13.1639 14.7417 3.36388 27.9417 0.463882 46.7417C-2.03612 63.3417 5.66388 77.7417 21.2639 85.5417C30.6639 90.2417 35.8639 91.2417 50.0639 91.2417C61.0639 91.2417 64.0639 90.8417 69.7639 88.9417C78.3639 85.9417 87.2639 80.1417 91.7639 74.6417C95.3639 70.1417 99.5639 62.7417 99.5639 60.7417C99.5639 60.0417 95.8639 59.7417 88.3639 59.9417L77.2639 60.2417L75.0639 64.2417C72.3639 69.0417 65.8639 74.2417 60.7639 75.7417C55.8639 77.0417 44.2639 77.0417 39.4639 75.6417C28.0639 72.1417 22.0639 60.4417 24.4639 45.9417C26.5639 33.1417 33.0639 23.2417 43.0639 17.9417C47.5639 15.5417 49.0639 15.2417 58.5639 15.2417C68.1639 15.2417 69.4639 15.4417 73.7639 17.9417C78.9639 21.0417 82.3639 25.8417 83.2639 31.2417L83.8639 34.8417L94.9639 34.5417L106.064 34.2417L105.764 30.2417C105.664 28.0417 104.164 23.4417 102.464 19.9417C98.6639 12.1417 91.8639 6.6417 81.3639 3.0417C72.1639 -0.158302 55.7639 -0.958302 45.0639 1.2417Z" fill="black"/>
<path d="M128.064 2.94163C127.864 3.64163 125.364 13.0416 122.564 23.7416C118.364 39.4416 105.964 82.9416 104.064 88.5416C103.664 89.5416 111.364 89.7416 141.764 89.5416L179.964 89.2416L181.764 83.2416C182.764 79.9416 183.564 76.9416 183.564 76.4416C183.564 76.0416 171.864 75.7416 157.564 75.7416C143.264 75.7416 131.564 75.4416 131.564 75.0416C131.564 74.7416 132.964 69.0416 134.664 62.5416L137.764 50.7416L161.464 50.5416L185.064 50.2416L186.764 45.2416C189.764 36.0416 191.564 36.7416 165.564 36.7416C145.464 36.7416 142.564 36.5416 142.564 35.1416C142.564 34.3416 143.764 29.6416 145.264 24.6416L147.964 15.7416H173.664H199.464L200.964 10.3416C203.764 0.841631 207.364 1.74163 165.564 1.74163C136.764 1.74163 128.364 2.04163 128.064 2.94163Z" fill="black"/>
<path d="M219.164 3.44155C218.864 4.44155 216.064 14.6416 213.064 26.2416C209.964 37.7416 204.764 56.2416 201.464 67.3416C198.264 78.3416 195.564 87.9416 195.564 88.6416C195.564 89.4416 198.464 89.7416 206.264 89.5416L216.864 89.2416L221.064 74.2416C223.364 65.9416 226.964 52.1416 229.164 43.4416C231.264 34.8416 233.264 27.7416 233.564 27.7416C233.864 27.7416 239.864 41.7416 246.964 58.7416L259.864 89.8416L273.864 89.5416L287.864 89.2416L294.064 66.2416C299.464 45.9416 310.564 7.44155 312.164 3.24155C312.664 1.94155 311.264 1.74155 301.764 1.74155H290.664L289.164 6.94155C285.864 18.3416 277.764 48.6416 276.064 55.7416C275.064 59.8416 274.064 63.5416 273.664 63.9416C273.364 64.3416 267.064 50.6416 259.864 33.4416L246.664 2.24155L233.164 1.94155C220.964 1.74155 219.664 1.84155 219.164 3.44155Z" fill="black"/>
<path d="M322.064 6.94166C319.364 16.2417 318.464 15.7417 335.664 15.7417C349.464 15.7417 350.664 15.8417 350.164 17.4417C349.864 18.4417 348.064 25.5417 346.164 33.2417C344.164 40.9417 339.764 56.6417 336.164 68.2417L329.764 89.2417L341.364 89.5417C347.664 89.6417 353.264 89.4417 353.664 89.0417C354.064 88.6417 357.164 77.6417 360.464 64.7417C363.764 51.8417 368.264 35.6417 370.464 28.7417L374.364 16.2417L389.964 15.9417L405.464 15.6417L406.564 11.9417C407.064 9.84166 407.864 6.74166 408.164 4.94166L408.864 1.74166H366.264H323.664L322.064 6.94166Z" fill="black"/>
<path d="M420.064 2.9417C419.864 3.6417 416.764 15.2417 413.164 28.7417C409.564 42.2417 404.164 61.3417 401.164 71.2417L395.864 89.2417L407.364 89.5417C413.664 89.6417 418.964 89.6417 419.164 89.4417C419.364 89.3417 421.364 81.9417 423.764 73.2417L428.064 57.2417L435.764 56.9417L443.464 56.6417L447.864 65.4417C450.264 70.2417 453.764 77.7417 455.564 81.9417L458.964 89.7417H472.264C479.564 89.7417 485.564 89.5417 485.564 89.2417C485.564 88.9417 481.964 81.4417 477.464 72.6417C473.064 63.7417 469.764 56.1417 470.264 55.7417C470.664 55.3417 473.364 54.2417 476.164 53.3417C490.764 48.6417 498.564 38.6417 498.564 24.5417C498.564 17.5417 496.964 14.1417 491.664 9.5417C484.164 3.1417 479.564 2.3417 448.264 1.9417C425.964 1.6417 420.464 1.8417 420.064 2.9417ZM470.064 17.1417C474.264 18.9417 475.564 21.3417 475.564 27.3417C475.564 33.4417 472.664 38.0417 467.164 40.6417C463.464 42.4417 461.064 42.7417 447.764 42.7417C438.464 42.7417 432.564 42.3417 432.564 41.7417C432.564 41.2417 434.264 35.1417 436.264 28.2417L439.864 15.7417H453.264C462.564 15.7417 467.664 16.1417 470.064 17.1417Z" fill="black"/>
<path d="M519.664 5.44159C514.264 26.2416 509.164 44.7416 507.064 51.6416C499.464 76.8416 509.764 90.2416 537.664 91.5416C563.064 92.6416 579.564 84.7416 587.564 67.4416C589.864 62.5416 607.564 4.94159 607.564 2.44159C607.564 2.04159 602.664 1.74159 596.564 1.74159H585.664L584.464 5.94159C576.964 34.3416 569.264 61.4416 568.064 63.7416C565.464 68.7416 559.564 73.6416 554.264 75.2416C544.964 78.0416 534.864 76.7416 530.664 72.3416C525.964 67.3416 526.464 63.9416 538.064 25.2416C541.664 13.1416 544.564 2.94159 544.564 2.54159C544.564 2.14159 539.164 1.74159 532.564 1.74159H520.664L519.664 5.44159Z" fill="black"/>
<path d="M623.164 3.44156C622.864 4.44156 620.064 14.6416 617.064 26.2416C613.964 37.7416 608.764 56.2416 605.464 67.3416C602.264 78.3416 599.564 87.9416 599.564 88.6416C599.564 89.4416 602.364 89.7416 609.764 89.5416L619.964 89.2416L622.764 79.7416C624.264 74.5416 628.164 60.1416 631.264 47.7416C634.464 35.3416 637.164 26.1416 637.364 27.2416C637.564 28.3416 640.064 42.7416 642.864 59.2416L648.064 89.2416H657.564H667.064L688.064 59.5416C699.564 43.2416 709.164 30.0416 709.364 30.2416C709.564 30.4416 707.464 37.9416 704.764 46.9416C699.564 63.7416 692.564 88.2416 692.564 89.2416C692.564 89.5416 697.764 89.6416 704.164 89.5416L715.864 89.2416L722.064 65.7416C725.564 52.8416 730.864 33.8416 733.964 23.5416C737.064 13.2416 739.564 4.14156 739.564 3.24156C739.564 1.94156 737.264 1.74156 724.164 1.74156H708.764L686.664 33.2416C674.464 50.5416 664.164 64.8416 663.764 65.1416C663.364 65.3416 661.064 53.8416 658.664 39.4416C656.264 25.0416 653.864 10.6416 653.364 7.44156L652.364 1.74156H638.064C625.264 1.74156 623.664 1.94156 623.164 3.44156Z" fill="black"/>
<path d="M759.464 44.9416C742.164 68.6416 727.864 88.5416 727.664 89.0416C727.564 89.4416 729.264 89.7416 731.664 89.5416L735.964 89.2416L745.964 75.0416L756.064 60.7416H779.364C792.064 60.7416 802.564 60.8416 802.664 60.9416C802.664 61.1416 803.664 67.5416 804.864 75.2416L807.064 89.2416L810.864 89.5416C813.364 89.7416 814.564 89.4416 814.564 88.5416C814.564 87.1416 801.864 7.84156 801.064 3.94156C800.564 2.04156 799.864 1.74156 795.664 1.74156H790.764L759.464 44.9416ZM798.564 32.5416C800.364 44.3416 801.564 54.0416 801.264 54.3416C801.064 54.5416 791.864 54.6416 780.864 54.5416L760.864 54.2416L777.464 30.9416C790.264 12.9416 794.164 8.04156 794.764 9.44156C795.164 10.4416 796.864 20.8416 798.564 32.5416Z" fill="black"/>
<path d="M852.064 2.94163C851.864 3.64163 849.364 12.7416 846.564 23.2416C842.264 39.2416 829.464 84.3416 828.064 88.5416C827.664 89.5416 828.664 89.7416 831.764 89.5416L835.864 89.2416L839.264 76.7416C842.564 64.4416 854.564 21.7416 858.464 8.44163L860.464 1.74163H856.464C854.164 1.74163 852.264 2.24163 852.064 2.94163Z" fill="black"/>
<path d="M875.164 19.9417C872.464 29.9417 866.964 49.5417 862.964 63.4417C858.864 77.3417 855.564 88.8417 855.564 89.1417C855.564 89.5417 857.264 89.7417 859.464 89.7417H863.264L868.664 70.4417L874.064 51.2417H888.064H901.964L903.864 54.4417C904.864 56.2417 909.064 64.7417 913.164 73.4417L920.564 89.2417L924.564 89.5417C926.764 89.7417 928.564 89.5417 928.564 89.1417C928.564 88.8417 924.764 80.4417 920.064 70.5417C915.364 60.6417 911.564 52.2417 911.564 51.8417C911.564 51.4417 914.264 50.5417 917.564 49.9417C933.564 46.6417 943.464 37.7417 945.164 25.3417C946.464 16.4417 942.164 9.6417 932.364 5.1417C926.064 2.2417 925.964 2.2417 903.064 1.9417L880.064 1.5417L875.164 19.9417ZM928.064 9.7417C930.864 11.1417 934.064 13.7417 935.264 15.6417C939.664 22.2417 937.264 32.5417 929.964 38.5417C923.064 44.2417 919.264 45.0417 896.264 45.5417C876.364 45.9417 875.364 45.8417 875.864 44.0417C876.164 43.0417 878.564 35.0417 881.064 26.2417C883.564 17.4417 885.964 9.4417 886.264 8.3417C886.764 6.6417 887.964 6.5417 904.964 6.9417C921.864 7.2417 923.364 7.4417 928.064 9.7417Z" fill="black"/>
<path d="M206.564 108.642C211.264 109.642 329.264 130.842 468.764 155.842C608.364 180.842 722.564 201.442 722.564 201.742C722.564 202.042 638.464 225.142 535.664 253.242C432.864 281.242 348.864 304.342 348.964 304.442C349.464 304.942 473.764 295.642 546.564 289.742C673.764 279.342 736.064 272.342 774.264 264.142C829.064 252.442 855.364 237.842 877.964 206.642L883.364 199.242L880.164 197.542C872.264 193.442 865.564 182.342 865.564 173.242C865.564 163.942 872.464 152.842 880.864 148.542C893.964 141.942 911.164 147.442 917.664 160.442C918.964 163.042 920.164 165.442 920.264 165.642C920.364 165.842 924.264 164.842 928.764 163.442C933.364 162.042 938.764 160.542 940.864 160.242C945.264 159.542 945.464 158.442 942.464 149.442C935.764 129.442 922.564 116.042 903.064 109.542L896.064 107.242L547.064 107.142C215.064 106.942 198.464 107.042 206.564 108.642Z" fill="#174ABC"/>
<path d="M911.164 172.442C900.464 179.642 883.164 197.642 884.964 199.542C885.364 199.942 888.964 200.242 892.864 200.242C908.564 200.142 919.264 190.142 920.364 174.442C920.964 166.242 920.564 166.142 911.164 172.442Z" fill="#EF11B6"/>
</svg>
