<svg transform="rotate(90)" width="32" height="32" viewBox="0 0 36 36" fill="none" xmlns="http://www.w3.org/2000/svg"><rect width="36" height="36" rx="10" fill="none"></rect><g clip-path="url(#clip0_497_12469)"><path d="M16 14L16 10C16 9.46956 16.2107 8.96086 16.5858 8.58578C16.9609 8.21071 17.4696 8 18 8C18.5304 8 19.0391 8.21071 19.4142 8.58578C19.7893 8.96086 20 9.46956 20 10L20 14L27 18L27 21L20 19L20 23L22 25L22 28L18 26L14 28L14 25L16 23L16 19L9 21L9 18L16 14Z" fill="#727D97"></path></g><defs><clipPath id="clip0_497_12469"><rect width="24" height="24" fill="none" transform="translate(6 30) rotate(-90)"></rect></clipPath></defs></svg>