<svg xmlns="http://www.w3.org/2000/svg" width="20" height="20" viewBox="0 0 20 20" fill="none">
  <path d="M11.6666 4.16667C11.6666 3.25 10.9166 2.5 9.99996 2.5C9.08329 2.5 8.33329 3.25 8.33329 4.16667C8.33329 5.08333 9.08329 5.83333 9.99996 5.83333C10.9166 5.83333 11.6666 5.08333 11.6666 4.16667Z" fill="#727D97"/>
  <path d="M11.6666 15.8333C11.6666 14.9166 10.9166 14.1666 9.99996 14.1666C9.08329 14.1666 8.33329 14.9166 8.33329 15.8333C8.33329 16.75 9.08329 17.5 9.99996 17.5C10.9166 17.5 11.6666 16.75 11.6666 15.8333Z" fill="#727D97"/>
  <path d="M11.6666 10C11.6666 9.08337 10.9166 8.33337 9.99996 8.33337C9.08329 8.33337 8.33329 9.08337 8.33329 10C8.33329 10.9167 9.08329 11.6667 9.99996 11.6667C10.9166 11.6667 11.6666 10.9167 11.6666 10Z" fill="#727D97"/>
</svg>